<mxfile host="app.diagrams.net" modified="2023-10-03T17:28:56.278Z" agent="Mozilla/5.0 (Windows NT 10.0; Win64; x64) AppleWebKit/537.36 (KHTML, like Gecko) Chrome/117.0.0.0 Safari/537.36" version="22.0.0" etag="WSmAn2aEXm3HBS_eYWqJ" type="github">
  <diagram name="Page-1" id="nwCvr3QYlteC926zTkdn">
    <mxGraphModel>
      <root>
        <mxCell id="0" />
        <mxCell id="1" parent="0" />
      </root>
    </mxGraphModel>
  </diagram>
</mxfile>
